<svg width="135" height="80" viewBox="0 0 135 80" fill="none" xmlns="http://www.w3.org/2000/svg">
<path fill-rule="evenodd" clip-rule="evenodd" d="M60.6855 8.5782H63.5549V26.2566H63.3347C62.3938 26.2566 61.4529 26.2566 60.512 26.2566C60.4415 26.2628 60.371 26.2433 60.3086 26.2003C60.2461 26.1573 60.1941 26.0924 60.1583 26.013L53.9189 14.3637C53.8609 14.245 53.7862 14.1416 53.6987 14.0592V26.2392H50.8292V8.5782H51.0628H53.8855C53.9534 8.57241 54.0211 8.59131 54.0812 8.63279C54.1413 8.67426 54.1914 8.73669 54.2259 8.8131L60.4652 20.2971C60.5226 20.4165 60.5974 20.52 60.6855 20.6016V8.5782Z" fill="white"/>
<path fill-rule="evenodd" clip-rule="evenodd" d="M44.6165 8.5782H47.8197V26.2392H44.6165V8.5782Z" fill="white"/>
<path d="M75.8468 18.1917C75.4099 17.6277 74.8703 17.2176 74.2786 16.9998C74.2052 16.9998 74.1318 16.9215 74.005 16.8606C74.0696 16.8192 74.1365 16.7843 74.2052 16.7562C74.6313 16.6566 75.0257 16.3965 75.3396 16.008C75.5091 15.8197 75.6443 15.5846 75.7355 15.3198C75.8267 15.055 75.8715 14.767 75.8668 14.4768C75.8668 13.6068 75.8668 12.6933 75.8668 11.7972C75.8816 11.1687 75.7437 10.5502 75.4729 10.03C75.2021 9.50972 74.8121 9.11428 74.3587 8.9001C74.007 8.72284 73.6426 8.5917 73.271 8.5086C72.212 8.28858 71.1368 8.23309 70.0679 8.3433C69.3853 8.3701 68.71 8.53445 68.0659 8.8305C67.5844 9.03669 67.1669 9.44041 66.8759 9.98137C66.5848 10.5223 66.4358 11.1715 66.451 11.832C66.451 12.702 66.451 13.6155 66.451 14.5116C66.4481 14.7733 66.4869 15.033 66.565 15.2741C66.6431 15.5153 66.7588 15.7326 66.9048 15.9123C67.2171 16.3504 67.6245 16.6539 68.0726 16.7823L68.2728 16.8606C68.2261 16.9302 68.2194 16.9563 68.2127 16.9563L68.0259 17.0346C67.4267 17.2553 66.8818 17.675 66.4444 18.2526C66.1682 18.5865 66.005 19.0496 65.9906 19.5402C65.9906 20.7756 65.9906 22.011 66.024 23.2377C66.033 23.7855 66.164 24.318 66.401 24.7706C66.6379 25.2231 66.9706 25.5762 67.3586 25.7868C68.0502 26.1672 68.7852 26.3965 69.534 26.4654C70.5992 26.6011 71.672 26.6011 72.7371 26.4654C73.4855 26.3988 74.2204 26.1725 74.9126 25.7955C75.314 25.5854 75.659 25.2258 75.9047 24.7617C76.1504 24.2975 76.2857 23.7493 76.2939 23.1855C76.3339 22.0284 76.2939 20.8713 76.2939 19.7055C76.3054 19.4263 76.2715 19.1472 76.1945 18.8863C76.1174 18.6254 75.9989 18.3887 75.8468 18.1917V18.1917ZM69.5207 11.919C69.5402 11.6927 69.6161 11.4809 69.7365 11.316C69.857 11.1511 70.0156 11.042 70.188 11.0055C70.8191 10.8021 71.4787 10.8021 72.1098 11.0055C72.3198 11.0652 72.5065 11.2207 72.6362 11.4441C72.7659 11.6674 72.8301 11.9439 72.8172 12.2235C72.8172 12.9833 72.8172 13.7431 72.8172 14.5029C72.831 14.8017 72.7574 15.0961 72.6113 15.327C72.4652 15.5578 72.2574 15.7079 72.0298 15.747C71.4393 15.926 70.8252 15.926 70.2347 15.747C70.0163 15.6946 69.82 15.5403 69.6824 15.3129C69.5449 15.0856 69.4755 14.8007 69.4873 14.5116C69.4873 14.1288 69.4873 13.7547 69.4873 13.3719C69.474 12.876 69.4673 12.3888 69.514 11.9103L69.5207 11.919ZM73.1175 22.8114C73.1247 22.9418 73.1116 23.0727 73.0789 23.1963C73.0462 23.3199 72.9946 23.4335 72.9272 23.5303C72.8598 23.6271 72.7781 23.705 72.6869 23.7594C72.5957 23.8138 72.497 23.8435 72.3968 23.8467C71.5645 24.0365 70.7133 24.0365 69.881 23.8467C69.7828 23.8423 69.6863 23.8123 69.5972 23.7583C69.5081 23.7044 69.4282 23.6277 69.3622 23.5328C69.2962 23.4379 69.2456 23.3267 69.2132 23.2057C69.1808 23.0848 69.1674 22.9566 69.1737 22.8288C69.1737 22.272 69.1737 21.7152 69.1737 21.1497C69.1737 20.6103 69.1737 20.0709 69.1737 19.5315C69.1787 19.2943 69.2488 19.0673 69.3712 18.8917C69.4937 18.7161 69.6603 18.6036 69.841 18.5745C70.3711 18.466 70.9061 18.4021 71.4425 18.3831C71.768 18.3822 72.0926 18.4289 72.4101 18.5223C72.6172 18.5508 72.8081 18.6808 72.9444 18.8859C73.0807 19.091 73.1521 19.356 73.1442 19.6272C73.1442 20.6799 73.1375 21.75 73.1108 22.8027L73.1175 22.8114Z" fill="white"/>
<path d="M30.2293 17.3826V17.3913L30.2026 17.3826L20.0928 8.6913V8.6739L20.1128 8.6652L20.1595 8.6913L30.2293 17.3826Z" fill="#7A2158"/>
<path d="M30.2827 17.4L30.256 17.3913L30.2626 17.3826L30.2827 17.4Z" fill="#7A2158"/>
<path d="M30.2626 17.4174L30.2426 17.4261V17.4H30.2493L30.2626 17.4174Z" fill="#7A2158"/>
<path d="M40.7728 8.787V26.1435L30.4628 34.8L20.2463 26.0826L30.2693 17.3913L30.2493 17.3826L20.1729 8.6913L20.1262 8.6652L30.2827 0L40.5393 8.7174L40.7728 8.787Z" fill="white"/>
<path d="M30.2493 17.4L30.2626 17.4174L30.2426 17.4261V17.4H30.2493Z" fill="#7A2158"/>
<path d="M30.2293 17.3826V17.3913L20.1529 26.0826L20.0928 26.0565V8.6565L20.1128 8.6652L20.1595 8.6913L30.2293 17.3826Z" fill="#BFBFBF"/>
<path d="M10.0297 17.4L20.1128 8.6739V26.0739L20.0795 26.1L10.0297 17.4Z" fill="white"/>
<path d="M9.99635 17.4174V17.4087V17.4174L20.0928 26.1087V26.1261L20.0861 26.1348L20.0528 26.1087L9.99635 17.4174Z" fill="#7A2158"/>
<path d="M9.94296 17.4L9.96298 17.4087H9.96966L9.96298 17.4174L9.94296 17.4Z" fill="#7A2158"/>
<path d="M9.96298 17.3826L9.97633 17.3739V17.4L9.96298 17.3826Z" fill="#7A2158"/>
<path d="M0.0667313 26.0217V8.6565L10.0764 0L20.1328 8.7174L10.0364 17.4087L10.0164 17.4174L20.0661 26.1087L20.1061 26.1348L9.94296 34.8L0 26.0826L0.0667313 26.0217Z" fill="#BFBFBF"/>
<path d="M9.97633 17.4L9.96298 17.3826L9.97633 17.3739V17.4Z" fill="#7A2158"/>
<path d="M87.7882 28.4616H81.4502V7.92342H88.069C90.0613 7.92342 91.7661 8.33458 93.1834 9.15691C94.6008 9.97256 95.6872 11.1459 96.4427 12.6769C97.1981 14.2012 97.5759 16.0264 97.5759 18.1524C97.5759 20.2918 97.1948 22.1337 96.4326 23.678C95.6705 25.2157 94.5607 26.3991 93.1032 27.2281C91.6458 28.0504 89.8741 28.4616 87.7882 28.4616ZM83.9372 26.2553H87.6277C89.3258 26.2553 90.7332 25.9278 91.8497 25.2726C92.9662 24.6174 93.7985 23.6847 94.3467 22.4746C94.895 21.2645 95.1691 19.8238 95.1691 18.1524C95.1691 16.4944 94.8983 15.067 94.3568 13.8703C93.8152 12.6669 93.0063 11.7442 91.9299 11.1024C90.8535 10.4539 89.513 10.1297 87.9085 10.1297H83.9372V26.2553ZM101.748 28.4616V7.92342H114.143V10.1297H104.235V17.0693H113.501V19.2756H104.235V26.2553H114.303V28.4616H101.748ZM119.468 7.92342L125.565 25.2124H125.806L131.903 7.92342H134.511L126.969 28.4616H124.402L116.861 7.92342H119.468Z" fill="#29ABE2"/>
</svg>
